<svg id="Layer_1" data-name="Layer 1" xmlns="http://www.w3.org/2000/svg" viewBox="0 0 302.79 92.55"><defs><style>.cls-1{fill:#fdfefe;}.cls-2{fill:#189bd6;}.cls-3{fill:#179ad6;}.cls-4{fill:#1f9ed7;}.cls-5{fill:#f2f9fc;}.cls-6{fill:#35a7db;}.cls-7{fill:#dceff8;}.cls-8{fill:none;}.cls-9{fill:#c6e6f4;}</style></defs><path class="cls-1" d="M10.63,21.75h0l.9-4.47C11.24,18.77,10.94,20.26,10.63,21.75Zm1.22-6.07h0l.12-.11Zm39.37,64.2,1,0,.84,0C52.46,79.89,51.84,79.9,51.22,79.88Zm8.31-.77c-.51.11-1,.21-1.55.3l.52-.08,1-.21h0Zm27-58.84,1.33.58h0Zm2.64,8.19s0,0,0,0a5.28,5.28,0,0,1,.83.39A5.34,5.34,0,0,0,89.14,28.46Zm15.41,21.29a2.45,2.45,0,0,0,0-.27h0c0,.18,0,.36,0,.53C104.56,49.93,104.55,49.84,104.55,49.75Zm0,1.11c0,.18,0,.36,0,.54a2.62,2.62,0,0,0,0-.28A2.46,2.46,0,0,1,104.6,50.86Zm0,1.44h0v0s0-.1,0-.15,0-.22,0-.32v-.09C104.59,51.92,104.58,52.11,104.56,52.3Z"/><path class="cls-2" d="M121.43,33.63l-2.8-16.26c-1.63-.26-2.84-.49-4.36.3.82,4.16,1.67,8.38,2.49,12.6s1.64,8.69,2.49,13.22c2.07-.24,3.79.34,5.52-.5,1.07-5.38,2.14-10.72,3.2-16.07.05-1.06.1-2.13.16-3.58,1.8,1.34,1.35,2.93,1.4,4.35q1.47,7.83,2.93,15.61c2.13.08,3.85.49,5.69-.36q2.46-12.69,4.94-25.43a5.63,5.63,0,0,0-4.22,0c-1.08,5.73-2.19,11.55-3.29,17.37l-.65,0c-1.15-5.88-2.31-11.77-3.45-17.59-2.12-.15-3.84-.44-5.66.25l-3.18,16.1Z"/><path class="cls-3" d="M88.22,37.44l-1,0c.12,1.78.24,3.57.39,5.69-2.31-.33-4.54,1.3-6.1-1.24h-1c-1.46,2.53-3.64.89-5.48,1.16a9.59,9.59,0,0,1-.38-6.69,1.05,1.05,0,0,1-.26.13.87.87,0,0,1-.45,0,.44.44,0,0,1-.16-.06l-.15-.07-.26-.16,0,0A3.79,3.79,0,0,0,73,36l0,0a.64.64,0,0,0-.18-.06.4.4,0,0,0-.15,0h0v0c-.12,1.22-.23,2.45-.34,3.68a2.92,2.92,0,0,1,.92,3.13c-1.24,1-2.68.5-4.14.35-.38-1.65,1-2.37,1.66-3.48l-.48-2.06c-3.26,0-5.16-1.63-6-4.66-.2-.23-.4-.45-.59-.68-.72.42-1.71-.23-2.33.58,0,.28,0,.56.08.84a8.32,8.32,0,0,1-6,3V42.2l.95.43.76.39c.22.11.44.23.64.35a16.65,16.65,0,0,1,1.52,1c.42.32.8.64,1.15,1a8.16,8.16,0,0,1,.71.74q.21.24.39.48c.1.13.19.26.28.4a5.82,5.82,0,0,1,.65,1.26,4.42,4.42,0,0,1,.15.48,1.21,1.21,0,0,1,.05.18,3.25,3.25,0,0,1,.08.43,4.26,4.26,0,0,1,0,1.07c0,.16,0,.32-.08.47a1.05,1.05,0,0,1-.06.24h0a1.6,1.6,0,0,1-.1.31,1.33,1.33,0,0,1-.1.24,1.83,1.83,0,0,1-.14.32l0,0a4.52,4.52,0,0,1-.3.51,6.36,6.36,0,0,1-.8,1,4.15,4.15,0,0,1-.43.4l0,0c-.49,2-2.44,1.89-3.78,2.66a2.62,2.62,0,0,1-.6.37c-2.52.3-1.25,2.25-1.52,3.52A4,4,0,0,1,57,61.92a2.34,2.34,0,0,1,1.54,1.49,2.82,2.82,0,0,1,1.22,2.47c.29,2.19,1.17,4.62-2.18,5.33,0,.3,0,.6,0,.9.45-.06.89-.13,1.33-.21l.84-.16.82-.18q.48-.11,1-.24l.48-.14.52-.16.64-.22.33-.12.71-.29.7-.32c.26-.12.51-.25.76-.39s.65-.37,1-.58.42-.27.62-.42a4.33,4.33,0,0,0,.37-.27l.36-.29.41-.34a13.83,13.83,0,0,0,1.16-1.14l0,0h0l-2-.11c-1-2.07,1.46-4.31-.76-6.25l.39-.07.52-.1,1.07-.2h.06v0c0-.73,0-1.46,0-2.18v0l-.05,0h0l-.23-.14a1.07,1.07,0,0,1-.21-.13A2.63,2.63,0,0,1,67.16,56l-.09-.22a6,6,0,0,1-.23-.68c0-.12-.07-.24-.11-.38s-.07-.29-.11-.45l-.24-1.05c0-.18-.08-.38-.12-.59l-.09-.41c0-.13-.06-.28-.09-.43-.1-.45-.2-.93-.3-1.46.69-2.19,2.77-2.19,4.37-2.79.84-1.33-1.49-1.7-.72-3a6.36,6.36,0,0,1,3.43-.07c.8,1.55.06,2.83-.06,4.14l1.14,0c.5-1.26.07-2.76,1.16-4.12,1.72.47,4-1.52,5.43,1.12l1,0c1.87-1.46,1.87-1.46,5.72-.95.7,1.79,0,3.59-.15,5.39l1.08,0A31.66,31.66,0,0,0,88.22,37.44Zm-25.64-.86c-.66-.59-.68-1.16.18-1.85C63.93,35.71,63.57,36.21,62.58,36.58Zm1,19.56,0,0H62.17a2.84,2.84,0,0,1,.2-.29c.29-.36.51-.39.69-.26a.28.28,0,0,1,.09.07l.09.09c.11.12.2.26.3.39h.07l.24.21Z"/><path class="cls-4" d="M19.5,85.24l0,.06h-.08Z"/><path class="cls-2" d="M85.26,85.44c-2.71,2.93-6,3.21-9.22,3.54-4.55.48-8.86-.9-13.16-2.19-1.54-.46-3.14-.71-4.71-1.06l-.27,0c-.47-.27-.93-.5-1.42.11l1,.43.89.62,5.4,4.52c-.72,1.39-1.54,1.43-2.46.64a9.64,9.64,0,0,1-1-1.14c-5.84-6.7-9.92-6.67-15.84.22-.88,1-1.54,2-3.28.85,1.34-2.5,4.05-3.68,6.08-5.86-2.52-.64-4.42.4-6.37,1-5.8,1.75-11.61,3-17.57.72-1.45-.56-3-1-3.8-2.51,5.17.93,10.08-.61,15-1.77,5.54-1.31,11-1.87,16.57,0a3.2,3.2,0,0,0,1.81.21,24.86,24.86,0,0,1,9.92-1.35c3.33.37,6.64,1,10.32,1.5.71,0,.14-1.28.85-1.58.27.22.54.44.82.65l-1.23.78C77.22,86,81,85.47,85.26,85.44Z"/><path class="cls-3" d="M228.14,17.51V42.87c-1.22,1-2.56.53-4.27.33V32.28h-7.2c-.89,3.45.11,7.22-.54,10.79a6.56,6.56,0,0,1-4.33,0V17.45a6.74,6.74,0,0,1,4.53.12v10h7.35V17.64A5.73,5.73,0,0,1,228.14,17.51Z"/><path class="cls-2" d="M132.89,56.78a9.61,9.61,0,0,0-9.14-6.49c-3.89.13-7.1,2.6-8.59,6.68a19.6,19.6,0,0,0,.11,14.24c1.43,3.67,4,6,8.09,6.22s7.19-1.65,9.07-5.34c1.27-2.5,1.6-5.21,1.57-8.58A16.67,16.67,0,0,0,132.89,56.78ZM128,70.84a4,4,0,0,1-4,2.73,4.12,4.12,0,0,1-3.82-2.51c-1.23-2.27-1.21-4.76-1.2-7.24s0-4.72,1.13-6.89c.87-1.63,2.08-2.89,4-2.81a4.28,4.28,0,0,1,3.91,3A18.18,18.18,0,0,1,128,70.84Z"/><path class="cls-3" d="M163.82,57.94c-2-.77-3.48-.35-4.52,1.3-5.07-3.38-8.82-2-10.54,3.68a15.85,15.85,0,0,0-.33,7.76c1.26,6.37,5.48,8.08,10.88,4.49a5,5,0,0,1-1.18,5.19c-2.72,2.77-5.8.45-8.66.19A5,5,0,0,0,149.3,84c7.4,3.45,13.91,1.08,14.41-5.67S163.82,64.69,163.82,57.94ZM160,69.6c-.51,2.52-1.54,4.54-4.69,3.61-2.88-4.25-2.67-9,.64-12.22C159.53,62,160.9,65,160,69.6Z"/><path class="cls-2" d="M39.62,46.37h0a.08.08,0,0,0,0,0Z"/><path class="cls-2" d="M46.43,46.33l-.12.18v1.55l-1.45-.16a2.89,2.89,0,0,0-.59,0c-1.71,0-2.78-1.94-4.62-1.51-.1-.17-.2-.34-.3-.53l-.45.52-.68.76c-.37-1-.41-2.25-1.28-2.51H32c-1.31,2.93,2.22,2,2.65,3.58.67,2.49,1.33,5,1.82,7.51.21,1.07.32,2,1.68,1.92l.74.71c-.15,1.45,1.33,1.69,1.91,2.6-.19.21-.39.42-.58.64L34,63.11l-1.15-.25c-.07-.44-.14-.89-.19-1.26-.75-.19-1.15-.08-1.28.53-.19.24-.39.47-.59.71-2.81-2.73-5-6.21-9.11-7.35-1.6,0-1.53-1.64-2.29-2.46a2,2,0,0,1,2.53-1.3c1,.22,2.24.06,2.2-1.55h1.1c.4,1.38,1,2.3,3,1.07-1.1-2.53,2.05-3.89,2.25-6.4-1.92-1-3.81-.3-5.6-.57l-1.67.6c-1.82-1-3.68-.46-5.38-.36-.88,1.21-.31,2.3-.4,3.34l-1,0a23.84,23.84,0,0,1,0-9l1,0c0,1.31-.65,2.67.46,4.3H30.1c.27-1.18.47-2,.66-2.83h1c.09.89-.61,1.93-.43,2.05,2.62,1.49,2.86-.3,3.73-1l0,0c.57.63.69,1.89,2.07,1.42,1-1.62-.24-2-1.3-2.56l0,0v0c.16-2.92,3.79-3,4.48-5.51C40.21,39.83,41.05,44.28,46.43,46.33Z"/><path class="cls-2" d="M302.65,43a6,6,0,0,1-4.34.1c-1.18-5,1-10.38-1.37-15.21-3.43-.57-4.28,1.35-4.34,3.85-.1,3.71,0,7.42,0,11-1.53,1.2-2.87.56-4.42.71V15.45c1.35-.64,2.57-.3,3.91-.3,1.12,3.31-.06,6.7.73,9.94,6.59-3,9.81-.82,9.86,6.5C302.67,35.42,302.65,39.24,302.65,43Z"/><path class="cls-3" d="M192.27,15.89v9.4c-6.05-2.95-10-.9-10.81,5.48a22.3,22.3,0,0,0,.08,6.32c1,6.34,5.06,8.17,10.87,5,1,2.14,2.8,1.32,4.39,1.22v-28C195.16,15.13,193.81,14.67,192.27,15.89Zm.13,18.9c0,2.44-.38,4.79-3.7,5.61-3.38-1.83-3.08-5-2.89-7.86.14-2.3.43-4.79,3.42-5.44C193,28.67,192.4,31.88,192.4,34.79Z"/><path class="cls-4" d="M8.21,56.94,8.13,57a.56.56,0,0,1,0-.12Z"/><path class="cls-4" d="M14.62,69.84c-.37-.32-1-.66-1-1,.07-3.56.24-7.13.4-10.7.15-3.24.61-6.51-.92-10a33.91,33.91,0,0,0-2.59,13c-1.2-1.7-3-2.16-2.34-4.13-.8.79-1.2-.11-1.63-.53A38.31,38.31,0,0,1,0,48.6,17.57,17.57,0,0,0,3.67,59.88l3.07,2.95C8.61,64.3,11,65.2,13,67.74c-3.51,0-5.32-1.56-7-3.27l-1.13-.83-1.48,0c.17.56.36,1.1.57,1.61a16.74,16.74,0,0,0,1,2.12c3.5,5.87,9.9,7.45,16.84,8.67C20.3,73,20,70,19.41,67.11S18.16,61.53,15.54,59c.2,4-.55,7.35.52,10.64Z"/><path class="cls-2" d="M66.41,26.78c-2.3,3.22-5.54,4.82-9.32,5.66a43.13,43.13,0,0,0-7.5,2.23c-2.13.91-3.8,2.44-1.75,5h0c-.27,1.43,1,1.62,1.79,2.19-.12,1.37.78,2.81-.29,4.22l-2.09-.53C41.75,42,41,40.06,42.81,33.8c3.08-3.64,7.63-4.14,11.79-5.45a1.15,1.15,0,0,0,.37,0c3-1.07,6.65-1.41,7-5.53s-3.28-5-6.14-6.1a5.14,5.14,0,0,1,.21-3.85A12.86,12.86,0,0,1,66,17.94C67.51,20.82,67.33,23.78,66.41,26.78Z"/><path class="cls-5" d="M54.6,28.35c-4.16,1.31-8.71,1.81-11.79,5.45l-.88-.11c.45-2.6-2.62-3.07-3.14-5.22l1.61-2.25,9.29-3.7c-2.22-1.36-3.88.72-5.56-.05l-.05,0,0,0c1.32-2.09,3.37-3.48,5.22-5.1-.14-1.24.27-2.47-.43-3.69-3.94,1.27-8,2.16-10.33,6.07l-.91-.25c-1.95-.51-3,.31-3.3,2.24-.91-.78-1.81.9-2.74,0-1-1.12-2.54-1.86-3.08-3.58a34.43,34.43,0,0,1,17.94-9c1.58-.29,1.57-.34,1.39-1.81A1.34,1.34,0,0,1,49.35,6c1,2.09.83,4.35.85,6.56,0,5.05,0,10.09,0,14.92a5.81,5.81,0,0,0,4.11-.25C54.41,27.6,54.51,28,54.6,28.35Z"/><path class="cls-3" d="M200.88,76.64a6.7,6.7,0,0,1-4.36.23c-1.17-5,.81-10.33-1.25-15.24-3.31-.76-4.41.9-4.48,3.51-.1,3.83,0,7.66,0,11.81h-4.5V57.85c1.7-.24,3.43-.94,4.43,1.2,6.57-3.45,10.06-1.34,10.17,6.15C200.93,69,200.88,72.87,200.88,76.64Z"/><path class="cls-3" d="M302.74,76.55c-1.45.91-2.79.49-4.29.41-1.29-5,.7-10.33-1.24-15.33-3.46-.79-4.48,1-4.53,3.76-.08,3.71,0,7.43,0,11.08-1.51,1-2.85.45-4.45.66V57.93c1.78-.7,3.43-.64,4.56,1.23,5.63-3.53,9.63-1.6,9.93,4.82C302.89,68.18,302.74,72.4,302.74,76.55Z"/><path class="cls-2" d="M263,28.65A5.34,5.34,0,0,0,258,23.83c-2.75-.36-5.45-.27-7.71,1.56-.15,1.1-.31,2.09.43,2.93,6.38-1.92,7.51-1.52,7.73,2.84-3.72.76-8.34-.07-9.88,4.93-.74,2.42-.35,4.84,1.74,6.45,2.77,2.12,5.6,1.31,8.41-.67.95,2.39,2.72,1.48,4.67,1.34C263.15,38.28,263.73,33.46,263,28.65ZM255.65,40.4a2.45,2.45,0,0,1-3-2.92c.43-3.67,3.3-3.26,6.14-3.31C259,37.06,259.16,39.79,255.65,40.4Z"/><path class="cls-4" d="M8.19,56.76a.68.68,0,0,1,0,.14l0,0A1.1,1.1,0,0,0,8.19,56.76ZM2.31,38.29c-.43,1.94.2,3.14,2.62,4.42C4.35,40.42,4.32,38.9,2.31,38.29Zm5,5.71c.67-2.56,2.34-4.51,3.89-6.56,1.9-2.51,4-4.93,4.45-8.25l-.78,0A20.1,20.1,0,0,0,7,39.23a20,20,0,0,1-1-6.31,16.31,16.31,0,0,1-.69-7.5h-.9a15.86,15.86,0,0,0-1.5,11.91c-.69,1.29-1.47-.11-2,.54A14.49,14.49,0,0,0,4.77,51.92C6.12,53.34,8,54.49,8.19,56.76c1.06-6.16,5.25-11.46,5.23-18.6a26.48,26.48,0,0,0-5,6.94Z"/><path class="cls-4" d="M89.13,28.4a.13.13,0,0,0,0,.06l0,0Z"/><path class="cls-4" d="M96.83,43.1A2.86,2.86,0,0,1,96,43a1.21,1.21,0,0,1,.86-.11A1.77,1.77,0,0,1,96.83,43.1Z"/><path class="cls-4" d="M97.27,56.14v0h0Z"/><path class="cls-4" d="M101.69,38l-3.32,6.43c-.67-.4-.87-1.36-1.55-1.55a4.28,4.28,0,0,0-1.66-3.35c-2.18-3.59-5.67-6.47-6-11,0,0,0,0,0,0a5.34,5.34,0,0,1,.83.41,7.61,7.61,0,0,1,.75.51c1.49,1.13,2.6,2.74,4.31,3.57.82,1.62,1.63,3.25,2.8,5.55,1.54-4.77,1.75-9,1.75-13.87C103,29.11,103.12,33.43,101.69,38Z"/><path class="cls-4" d="M100.78,51.22c-1.28,1.52-3.4,2.51-3.51,4.88-.23-.06-.61-.1-.64-.22-1.14-5.49-5-10.22-4.86-16,1.06-.42,1.42.19,1.9.52.58,1,.94,2.21,2.29,2.59a.84.84,0,0,0-.14.06c.57,2.33,1.15,4.68,1.81,7.34l4.75-10.11c.44-1,.89-2,1.53-3.35C105.59,42.57,104.24,47.08,100.78,51.22Z"/><path class="cls-2" d="M158.66,30.83c-.55-4.19-3.33-6.88-7.32-7.12a7.64,7.64,0,0,0-8.3,6,14.56,14.56,0,0,0-.19,7.36c1.26,5.5,5.67,8,11,6.26,3.29-1.11,5-4.32,5-10C158.79,32.81,158.79,31.81,158.66,30.83Zm-7.59,9.58c-3.45-.54-3.67-3.12-3.65-5.63,0-3-.78-6.41,3.3-7.76,3.1.85,3.45,3.32,3.53,5.85C154.35,35.84,154.48,38.91,151.07,40.41Z"/><path class="cls-3" d="M276.16,57.35c-5.29,0-8.33,3.68-8.31,10.12s2.84,9.85,8.07,9.91c5.4.06,8.37-3.53,8.34-10C284.22,61.09,281.21,57.38,276.16,57.35Zm-.24,16.72c-3.45-2.17-4.54-9.45-2-12.23a2.57,2.57,0,0,1,3.93-.34C280.85,64,279.67,72.18,275.92,74.07Z"/><path class="cls-2" d="M181.56,62.65a5.16,5.16,0,0,0-5-5.17c-2.72-.3-5.45-.35-7.69,1.53-.11,1.14-.26,2.13.47,3,6.12-1.93,7.51-1.44,7.85,2.9-3.81.54-8.39-.13-10,4.7-.81,2.43-.56,5.08,1.85,6.74,2.73,1.87,5.42,1.24,8-.74,1.12,1.81,2.7,1.86,4.52,1.19C181.62,72.06,181.78,67.35,181.56,62.65ZM174.12,74a2.48,2.48,0,0,1-3-2.91c.37-3.68,3.38-3.13,6.2-3.64C177.57,70.79,177.56,73.48,174.12,74Z"/><path class="cls-2" d="M243.29,66.14c0-8.44-5.41-11.39-13-7a3.92,3.92,0,0,0,.58,3.06c2.33-.9,4.51-2,7-.54.59.89,1.29,1.88.53,3.32-3.92.36-8.32,0-9.9,4.88a5.51,5.51,0,0,0,1.88,6.41c2.78,2.1,5.61,1.17,8.25-.59,1.07,2,2.74,1.46,4.62,1.26C243.29,73.1,243.31,69.62,243.29,66.14Zm-9.64,7.31c-.89-2.15-.89-2.15-.16-4.46,1.36-1.27,3.1-1.21,5-1.39C239.17,73.19,237.85,74.63,233.65,73.45Z"/><path class="cls-2" d="M241.09,35.09c1.68-.19,3.47.5,5.07-.54a12.06,12.06,0,0,0-1-7,6.82,6.82,0,0,0-11-1.92c-3.27,3.16-3.9,10.69-1.22,14.67,2.52,3.75,7.11,4.5,12.37,2a4,4,0,0,0-.36-3.06c-6.55,1.83-8.56,1-8.93-3.81C237.63,34.75,239.39,35.27,241.09,35.09Zm-5.16-3.15c-.15-3,.44-5.08,4-4.79,1.57,1.34,2.3,2.77,1.76,4.74A15.72,15.72,0,0,1,235.93,31.94Z"/><path class="cls-4" d="M256.2,73.87a2.9,2.9,0,0,1,0,2.84c-5.48,1.62-7.92,0-8.09-5.53-.09-3,0-6,0-9.09-.91-1.22-4.35-.82-3.07-2.84.83-2.12,2.32-1.26,2.94-2.36.08-.85.18-1.84.27-2.84a7.82,7.82,0,0,1,4.08-1.57c1.08,1.39.21,3,.81,4.56.61,1.09,2,.17,3,.85a2.92,2.92,0,0,1,.23,2.73c-.79,1.11-2.19.26-3.27,1.18a62.68,62.68,0,0,0,0,10.7C254.16,73.94,255.39,73.25,256.2,73.87Z"/><path class="cls-4" d="M285.21,40a2.88,2.88,0,0,1,.25,3c-5.23,1.82-7.74.27-7.94-5-.12-3.22,0-6.44,0-9.26a1.88,1.88,0,0,0-1.59-1.08l-.38-.08-.17-.05a1.16,1.16,0,0,1-.47-.27.86.86,0,0,1-.13-.14,3.62,3.62,0,0,1-.13-2.53c.54-1.13,2-.22,2.7-1.39.1-.81.24-1.9.4-3.17l3.79-1.25c1.06,1.53.24,3.1.8,4.62.66,1.08,2.05.15,3,.87a2.93,2.93,0,0,1,.2,2.72c-.8,1.1-2.2.22-3.25,1.17V38.8C283,40.26,284.31,39.9,285.21,40Z"/><path class="cls-4" d="M226,76.86H213.53c-.85-6.58,5.2-9.86,7.07-15.37l-6.38-.32c-.95-1-.56-2-.53-3.29h12.17c.78,6.44-5.27,9.76-7,15.32h6.41C226.45,74.67,226.08,75.64,226,76.86Z"/><path class="cls-4" d="M178.3,15.44V42.92c-1.25.91-2.56.51-4.14.28V15.31A6.54,6.54,0,0,1,178.3,15.44Z"/><path class="cls-3" d="M271.91,15.42V43.14a8,8,0,0,1-4.23,0V15.45A5.87,5.87,0,0,1,271.91,15.42Z"/><path class="cls-4" d="M95,32.93l.09-.1-.06.13h0Z"/><path class="cls-4" d="M97.58,33.35c-1.14,1.14-1.39-1.79-2.47-.52,1-2.29-1.26-3-2.34-4.09-1.94-1.91-4.27-3.43-6.3-5.26a5.38,5.38,0,0,1-2-3.86l.18-.19,1.9.84,1.33.57h0c.55.68,1.12,1.23,2.11.79.29-1.19-.66-1.36-1.35-1.73-3.84-2.59-5.47-6.89-8.1-10.45,5.61.72,10.7,6.13,12.23,13a4.7,4.7,0,0,0-.65,0c-.44-.36-.87-.76-1.44-.2-.18.56.19.8.57,1l4.17,4.49c-.55-2.47-.88-3.9-1.2-5.33s-.34-3-.52-4.45l1.42,0C98.93,22.64,98,28.07,97.58,33.35Z"/><path class="cls-4" d="M20.81,19.34c-.84,3.48-3.61,5.23-5.93,7.33C12,28,10.12,30.36,8.48,32.93c-.51.81-.8,1.21-1.19,0-.53-5.54-1.06-11.09,3.1-15.71l1.15.07-.9,4.47c-.27,1.74-.53,3.48-.79,5.21,2-2.66,5.24-3.75,7.26-6.36-2.24-1-3.25,1.66-5.07,1.11C15.36,14,18.72,10.63,24.52,9.37c-2.66,3.7-4.33,7.79-8.14,10.63C18.44,21.06,19.26,19.21,20.81,19.34Z"/><path class="cls-6" d="M59.54,79.11h0a34.87,34.87,0,0,1-14,.13c-.82-.15-1.64-.34-2.44-.56-.53-.13-1.06-.28-1.58-.45a37.6,37.6,0,0,1-9-4.19q-.69-.43-1.35-.9l-.68-.49q-.66-.48-1.29-1c-.64-.52-1.27-1.06-1.87-1.61-.4-.37-.79-.75-1.17-1.13a35.11,35.11,0,0,1-4.32-5.27c-.18-.27-.36-.55-.53-.83a31.33,31.33,0,0,1-4.82-14.94l1,0q.69,2.61,1.4,5.22a10.69,10.69,0,0,0,2.1,5.3,25.76,25.76,0,0,0,6.53,9.43c1.27-1.74,3.87-2.21,3.31-5,.2-.24.4-.47.59-.71l1.47.73,1.15.25c-.57,1.5.74,2,1.54,2.57a26.85,26.85,0,0,0,14.35,5.57c.09.46.17.91.25,1.36-6.85-.22-12.5-3.39-18-7.67-.71.83-1.28,1.48-1.84,2.15S29,68.21,28.92,69.41q.66.59,1.32,1.14c.89.74,1.8,1.42,2.72,2A33.37,33.37,0,0,0,37,75c.15.09.31.16.47.24.41.2.82.38,1.23.56h0c.44.19.87.36,1.31.53.61.24,1.22.45,1.84.65.89.28,1.79.53,2.71.73.64.15,1.28.28,1.93.39.45.08.9.15,1.36.2l.18,0c.48.06,1,.11,1.46.15,1.12.1,2.26.15,3.41.15,1,0,1.94,0,2.93-.1h0c1-.07,2-.18,3-.31h0l.35.46.35.45Z"/><path class="cls-4" d="M55.58,1c-1.07,8.5-1,17.36-1.26,26.21a5.81,5.81,0,0,1-4.11.25c0-4.83,0-9.87,0-14.92,0-2.21.18-4.47-.85-6.56C49.52,4.18,49,2.21,50.54.57,51.82-.32,53.2-.16,55.58,1Z"/><path class="cls-6" d="M46.47,9.11a34.43,34.43,0,0,0-17.94,9c.54,1.72,2,2.46,3.08,3.58.93.89,1.83-.79,2.74,0-.26,1-.52,2-.77,3-.86.33-1.82.08-2.55,1.06-3.89,5.2-6.66,10.75-6.16,17.48h-2C23.71,36,25.75,29.14,31,23.78c-1-1.9-2.4-2.93-3.85-4.23C21.69,25,19,31.66,17.53,39l-1,0c.93-14.19,12.45-27,27.7-30.86,1.2-.31,2.42-.53,3.64-.78C48,8.77,48.05,8.82,46.47,9.11Z"/><path class="cls-2" d="M31.22,82.91c-8.32.57-16.36,1-21.94-8.2,5.39,2.82,10.55,3,15.4,4.45.48.17.87.18.93-.61l-.89-.83c-1.24-2.55-2.76-5-2.22-8.41C27.62,72.6,29.29,77.75,31.22,82.91Z"/><path class="cls-4" d="M97.3,56.11v0h0Z"/><path class="cls-4" d="M104.21,54.33s0,0,0,0a4.13,4.13,0,0,1-.15.5,13.43,13.43,0,0,1-3,4.94c-.29.33-.61.65-.94,1h0c-.51.5-1.06,1-1.67,1.51a66.92,66.92,0,0,1-7.85,5.5c2.18-6.56-1.75-13,1.25-19.49,1.68,4,2.79,7.86,2.35,12.61,1.72-1.61,3.69-2.31,3.14-4.76,2.57.7,2.87-1.95,4.2-3a7.34,7.34,0,0,0,1.23-1.26q.38-.47.72-1l.35-.49c.23-.32.47-.64.71-.95h0A13.16,13.16,0,0,1,104.21,54.33Z"/><path class="cls-2" d="M101.5,63.79c-2.63,8.95-10.2,10.72-18.31,12.35,2.51-5.38,1.51-11.64,5.8-17,.17,2.29.41,4,.4,5.76s-.29,3.44-.5,5.6a48,48,0,0,0,11.92-7.14Z"/><path class="cls-2" d="M94.37,76.46c-3.07,4.9-7.78,6.57-13.26,6.65-2.1,0-4.2-.11-6.29-.17-.28-.21-.55-.43-.82-.65,1.68-5.23,3.92-10.09,8.89-13.64a21.13,21.13,0,0,1-3,9.66.63.63,0,0,0-.47.41c-.47.23-.93.46-.4,1.12l.35-.57L80.43,79c4.66-1,9.43-1.6,13.85-3.54Z"/><path class="cls-6" d="M88.16,50.12c-2.88,15.1-14,26.41-28.62,29l-.36-.45-.36-.46h0c6.58-1.77,12.84-4.1,17.69-9.42-1.74-1.71-2.8-3.78-5.4-3.65.65-2.23-1.59-3-2.33-4.48l.75-.64,1.95-1.1c.51,1.15,1,2.17,1.51,3.37,4.75-4.87,6.54-10.59,7.53-16.66l1,0c.08,7.1-3.41,12.76-7.53,18.12a10.53,10.53,0,0,0,3.93,3.82c4.86-4.93,7.61-10.9,9.17-17.5Z"/><path class="cls-2" d="M171.23,27.83l-3.55,1c-3.18,4.36-.47,9.64-1.9,14.3-1.23.57-2.43.28-4,.18V24.21c1.95-.46,3.63-.75,4.25,1.78,1.56-.87,2.53-2.74,4.75-2C171.74,25.09,171,26.45,171.23,27.83Z"/><path class="cls-3" d="M146.41,61.44l-3,.85c-2.39,2-1.81,4.59-1.87,7s0,4.91,0,7.6c-1.77.19-3,.44-4.38-.24V58a4.83,4.83,0,0,1,3.4-.16c.18.58.36,1.15.55,1.74,1.19.09,1.53-1.13,2.4-1.56a2.88,2.88,0,0,1,2.84-.21A5.37,5.37,0,0,1,146.41,61.44Z"/><path class="cls-6" d="M209.31,57.73v18.9c-1.35.94-2.7.34-4.35.53V57.91C206.4,57.3,207.73,57.58,209.31,57.73Z"/><path class="cls-2" d="M264.21,57.85v19a7.29,7.29,0,0,1-4,0V58A6.08,6.08,0,0,1,264.21,57.85Z"/><path class="cls-4" d="M81.49,41.92h-1c-.5-5.29-1.57-10.26-7.11-12.75-1.17-.7-1.54-3-3.64-1.81-.06-.42-.13-.85-.19-1.27-.85-2.73-1.13-5.62-2.55-8.17.3-1.12,1-1.07,1.87-.67.2.68.78.74,1.35.8,2,.42,1.25,3.83,3.87,3.61,0,.53,0,1.06,0,1.6a4.92,4.92,0,0,0,.81,1.6C80,29.44,81,35.59,81.49,41.92Z"/><path class="cls-6" d="M79.79,19.79c-.23.21-.46.42-.68.64-2.81-1.07-3.23,2.08-5,2.83,0-.54,0-1.07,0-1.6l2.49-3.08c-2.51-3.24-6-5-9.53-6.8S59.87,9.47,55.35,8.43c4.3-1.23,10.93.87,16.57,4.43.48.31,1,.62,1.41.94.69.48,1.36,1,2,1.51a31.84,31.84,0,0,1,2.42,2.17A23.81,23.81,0,0,1,79.79,19.79Z"/><path class="cls-6" d="M88.22,37.44l-1,0a42.49,42.49,0,0,0-8.09-17c.22-.22.45-.43.68-.64A31.83,31.83,0,0,1,88.22,37.44Z"/><path class="cls-6" d="M264,53.74c-1.45.79-2.87.38-4.28.24-.68-1.52-.39-2.83-.26-4.35a9.21,9.21,0,0,1,4.36-.06A6.6,6.6,0,0,1,264,53.74Z"/><path class="cls-4" d="M209.33,53.87a7.41,7.41,0,0,1-4.32-.11c-.66-1.31-.3-2.61-.24-3.92a6.08,6.08,0,0,1,4.43-.15A7.06,7.06,0,0,1,209.33,53.87Z"/><path class="cls-7" d="M96.83,43.1A2.86,2.86,0,0,1,96,43a1.21,1.21,0,0,1,.86-.11A1.77,1.77,0,0,1,96.83,43.1Z"/><path class="cls-7" d="M69.53,26.09,67.08,27.4l-.67-.62c.92-3,1.1-6-.46-8.84l1,0C68.4,20.47,68.68,23.36,69.53,26.09Z"/><path class="cls-8" d="M8.41,45.1,7.29,44"/><path class="cls-6" d="M61.37,23.71c-2.76.41-4.33-.11-5.7-1.37C57.61,21.67,59.12,22.37,61.37,23.71Z"/><path class="cls-2" d="M129.53,27.69,128,26.92c.05-1.06.1-2.13.16-3.58C129.93,24.68,129.48,26.27,129.53,27.69Z"/><path class="cls-7" d="M96.83,43.1A2.86,2.86,0,0,1,96,43a1.21,1.21,0,0,1,.86-.11A1.77,1.77,0,0,1,96.83,43.1Z"/><path class="cls-6" d="M59.6,11.32c-1.07.9-1.88.51-3,.45C57.7,10.67,58.51,11,59.6,11.32Z"/><path class="cls-6" d="M70.2,18.05c-.57-.06-1.15-.12-1.35-.8.15-.64.41-1.12,1.2-.8C70.69,16.94,70.29,17.51,70.2,18.05Z"/><path class="cls-8" d="M122.64,33.64h-1.21"/><path class="cls-6" d="M95.07,18l-1.42,0c-.28-.61-.55-1.21-1.1-2.39A4.22,4.22,0,0,1,95.07,18Z"/><path class="cls-6" d="M5,62.54l-.24,1.1-1.48,0c-.14-.54-.27-1.08-.41-1.62C3.6,62.22,4,63.64,5,62.54Z"/><path class="cls-9" d="M5.29,25.42h-.9c0-.63.2-1.16.93-1.31C6.05,24.55,5.82,25,5.29,25.42Z"/><path class="cls-8" d="M16.06,69.59l-1.44.25"/><path class="cls-6" d="M11.83,15.76c-.09.51-.19,1-.29,1.52l-1.15-.07A2.51,2.51,0,0,1,11.83,15.76Z"/><path class="cls-6" d="M11.9,15.73l-.06,0a.17.17,0,0,1,0-.07h0Z"/><path class="cls-6" d="M16.35,27.8l-.72,1.39-.78,0Z"/><path class="cls-6" d="M101.75,62.17c-.09.54-.17,1.08-.25,1.62l-.69-.48A1.42,1.42,0,0,1,101.75,62.17Z"/><path class="cls-6" d="M101.81,62.15l-.06,0s0-.05,0-.08Z"/><path class="cls-6" d="M94.37,76.46l-.09-1,.57-.35C95.3,75.78,94.92,76.15,94.37,76.46Z"/><path class="cls-4" d="M19.5,85.24l-.05.05-.15-.08c-.14,0-.11,0,0,0Z"/><path class="cls-4" d="M84.6,19.43l-.18.19c-.35-.09-.55-.26-.27-.84C84.33,19.05,84.46,19.24,84.6,19.43Z"/><polygon class="cls-6" points="22.13 68.51 22.02 68.75 21.94 68.5 22.13 68.51"/><path class="cls-4" d="M89.13,28.4l0,0h0l-.22-.12Z"/><path class="cls-6" d="M12.09,15.48l-.19.25,0,0h0Z"/><path class="cls-6" d="M101.76,62.09h.08l0,.06Z"/><path class="cls-6" d="M101.84,62.09c.08-.16.17-.31.26-.48C102.39,62.05,102.14,62.09,101.84,62.09Z"/><polygon class="cls-9" points="91.8 38.66 91.59 38.63 91.73 38.41 91.8 38.66"/><path class="cls-4" d="M58.33,86.87l-.89-.62c.16-.18.31-.35.46-.54l.27,0C58.22,86.11,58.27,86.49,58.33,86.87Z"/><path class="cls-5" d="M71.12,65.13c2.59-.13,3.66,1.94,5.4,3.65-4.86,5.32-11.12,7.65-17.7,9.41-11.32,1.5-21.4-1.1-29.9-8.78.06-1.2.87-1.68,1.42-2.33l1.84-2.14c5.46,4.28,11.11,7.45,18,7.67l1.27,0c.49,1.33-.66,3.19,2.22,4.75V59.31a1.5,1.5,0,0,0-1.18-1.64c0-.23-.05-.45-.06-.68,2.69-1.36,2.76-1.36,3.85-.08-2.53.3-1.25,2.25-1.52,3.52,0,.59,0,1.18-.07,1.76-.41,3.26,3.21,3.15,4.39,5.14l-.14-1.46h.9c.29,2.19,1.17,4.62-2.18,5.33-1,0-2.21-.4-2.93.9,1,.91,2,.53,2.94,0,4.56-.63,8.78-2,12-5.51l0,0,.71-.11c.49-.33,1.49-.38.8-1.4Z"/><path class="cls-5" d="M79.11,20.43a42.49,42.49,0,0,1,8.09,17c.12,1.78.24,3.57.39,5.69-2.31-.33-4.54,1.3-6.1-1.24C81,35.59,80,29.44,74.92,24.86a5.14,5.14,0,0,1-.82-1.6C75.88,22.5,76.3,19.36,79.11,20.43Z"/><path class="cls-5" d="M87.08,50.09c-1.56,6.6-4.31,12.57-9.17,17.5A10.64,10.64,0,0,1,74,63.77c4.13-5.36,7.62-11,7.54-18.13,1.87-1.45,1.87-1.45,5.71-1C87.92,46.49,87.25,48.28,87.08,50.09Z"/><path class="cls-5" d="M80.52,45.62c-1,6.07-2.77,11.79-7.52,16.66-.54-1.2-1-2.22-1.51-3.37L69.54,60l-.68-.16,0,0V57.64l0,0c.58,0,.79-.27.8-.79l0,0,.8-.68a15.2,15.2,0,0,0,3.54-7.62c.5-1.26.07-2.76,1.16-4.12C76.82,45,79.05,43,80.52,45.62Z"/><path class="cls-2" d="M56.24,56.91c-1.09-1.28-1.16-1.28-3.85.08-1,0-1.89.27-2.15,1.43-.14,1-.27,2-.44,3.14-3.49-2.61-3.51-5.08-.25-6.92a48.63,48.63,0,0,1,4.69-2,2.92,2.92,0,0,0,2.94-2.13c.18-.66.06-1.45-1-1.12h0c-.3-1.65-1.89-3.22-.36-5,5.38,2,6,3.28,4.83,9.54l0,0c-1.74.2-3.54.32-3.77,2.66A2.62,2.62,0,0,1,56.24,56.91Z"/><path class="cls-5" d="M73.36,29.17c5.54,2.49,6.61,7.46,7.11,12.75C79,44.45,76.83,42.8,75,43.07a9.61,9.61,0,0,1-.37-6.68c.73-1.53-.24-2.75-.69-4.08C73.59,31.3,72.05,30.48,73.36,29.17Z"/><path class="cls-7" d="M47.86,39.7c-2.08-2.58-.41-4.12,1.73-5a42.88,42.88,0,0,1,7.5-2.23c3.78-.84,7-2.45,9.32-5.66l.67.62c-.39,2.16-2.52,3.07-3.48,4.83-.72.42-1.7-.23-2.33.58l-.43.6.52.24a8.29,8.29,0,0,1-6,3l-1.25-.06C54,36,54,35.43,53.88,34.85a3.91,3.91,0,0,0-3.09,1v6l-1.17-.05c-.8-.57-2.06-.76-1.79-2.2,2.2-.2,1.8-1.41,1.48-3.06C47.6,37.48,48.08,38.73,47.86,39.7Z"/><path class="cls-7" d="M68.87,57.64c-1.82-1.08-1.82-1.08-3.09-7.31.69-2.19,2.77-2.19,4.37-2.79.84-1.34-1.5-1.7-.72-3a6.26,6.26,0,0,1,3.43-.07c.8,1.54.06,2.83-.06,4.14l-3.06,6.8c-.26.47-.86.91-.14,1.48l0,0c-.86-.33-.95.1-.8.79Z"/><path class="cls-9" d="M54.1,36.61l1.25.06V42.2c7.46,3.2,9.35,8.25,5.24,11.71,1.21-6.26.55-7.56-4.83-9.54-1.53,1.78.06,3.35.36,5-.47.28-1.55.18-.86,1.27.93,0,.6-.84.87-1.26,1.11-.33,1.23.46,1,1.12a2.92,2.92,0,0,1-2.94,2.13l-.69-.78Z"/><path class="cls-7" d="M70.66,39.63c-.16-.69-.33-1.38-.48-2.06-3.26,0-5.16-1.63-6-4.67l2.7-2,.6.66L67.37,34c.58-1,.92-2.12,2.18-2.46l.77,0,0,0c-.68,2.23.47,3.53,2.28,4.51l0-.05-.33,3.72Z"/><path class="cls-6" d="M66.9,30.92l-2.7,2-.6-.67c1-1.76,3.09-2.67,3.48-4.83l2.45-1.31c.06.42.13.85.19,1.27-1,1.3-.14,2.32.52,3.37l-.69.78C68.29,31.85,68,33,67.37,34c0-.8.09-1.59.13-2.39.57-.31,1.11-.63.51-1.36C67.37,30.07,67.12,30.47,66.9,30.92Z"/><path class="cls-9" d="M70.24,30.73c-.66-1.05-1.54-2.07-.52-3.37,2.09-1.16,2.47,1.11,3.64,1.81-1.31,1.31.23,2.13.56,3.14.45,1.33,1.42,2.55.69,4.08-.86.58-1.34-.46-2.06-.48l0,.05c.18-2,0-3.76-2.28-4.51l0,0c0-.09.12-.18.1-.26A2.78,2.78,0,0,0,70.24,30.73Z"/><path class="cls-7" d="M68.78,60.64c.75,1.52,3,2.26,2.34,4.49h0c-.74-.25-1.14.2-1.48.75-.07.08-.2.17-.2.24a2.43,2.43,0,0,0,.17.52l0,0-2-.1c-1-2.08,1.46-4.31-.76-6.25l2-.38,0,0c-.08.08-.23.16-.23.24A3.44,3.44,0,0,0,68.78,60.64Z"/><path class="cls-9" d="M70.66,39.63h1.56a2.92,2.92,0,0,1,.92,3.13c-1.24,1-2.68.5-4.14.35C68.61,41.45,70,40.73,70.66,39.63Z"/><path class="cls-6" d="M69.74,55.44l3.06-6.8,1.14,0a15.2,15.2,0,0,1-3.54,7.62Z"/><path class="cls-9" d="M56.84,56.54c.23-2.34,2-2.46,3.77-2.66C60.12,55.86,58.18,55.77,56.84,56.54Z"/><path class="cls-6" d="M57.63,72.11c-1,.53-1.93.91-2.94,0,.72-1.3,1.9-.87,2.93-.9Z"/><path class="cls-9" d="M62.76,34.72c1.17,1,.81,1.48-.18,1.86C61.92,36,61.9,35.42,62.76,34.72Z"/><path class="cls-9" d="M54.65,62.19c0-.58.05-1.17.07-1.76A4,4,0,0,1,57,61.92l-.67.71Z"/><path class="cls-9" d="M59.8,65.88h-.9c-.34-.6-.68-1.2-1-1.8l.71-.66A2.8,2.8,0,0,1,59.8,65.88Z"/><path class="cls-9" d="M57,61.92a2.34,2.34,0,0,1,1.54,1.49l-.7.66-1.51-1.44Z"/><path class="cls-9" d="M63.61,56.1H62.17c.73-1.17,1-.41,1.4,0Z"/><path class="cls-6" d="M61.36,33.65l-.52-.24.43-.6Z"/><path class="cls-9" d="M63.57,56.14l.28.16-.24-.2Z"/><path class="cls-4" d="M57.44,86.25l-1-.44c.49-.6,1-.37,1.41-.1C57.75,85.9,57.6,86.07,57.44,86.25Z"/><path class="cls-5" d="M49.62,41.87l1.17.05V51.7a2.61,2.61,0,0,0,2.76.15l.69.78a48.63,48.63,0,0,0-4.69,2c-3.26,1.84-3.24,4.31.25,6.92.17-1.16.3-2.15.44-3.14l1.26-.05-.11,12.69-1.5.19a26.82,26.82,0,0,1-14.35-5.57c-.8-.59-2.11-1.08-1.54-2.57l6.18-1.54.78.65a13.8,13.8,0,0,0,9.91,2.83l-9-3.54-1.07-.58c-.58-.91-2.07-1.15-1.91-2.6l3.47-2.94c1.55-.18,2.31,1.81,3.82,1-.12-1.45-2-1.39-2-3,1.42-1.31,2.44-3.51,5.2-3.17v-2.6l-3.08-1.07.12-.18.81-.77,2.09.53C50.4,44.68,49.49,43.24,49.62,41.87Z"/><path class="cls-5" d="M17.53,39c1.46-7.32,4.15-14,9.6-19.42,1.45,1.3,2.86,2.33,3.85,4.23C25.75,29.14,23.71,36,22.91,43.27H18C16.88,41.64,17.55,40.28,17.53,39Z"/><path class="cls-5" d="M24.87,43.27C24.37,36.54,27.14,31,31,25.79c.73-1,1.69-.73,2.55-1.06h0c-.26.78,0,1,.77.76h0c-.25.74.41.83.8,1.12a.89.89,0,0,0,.61,1.08c.84,1.44-1.77,2.3-.64,3.79l0,0c-3.7,1.92-3.73,5.62-4.39,9l-.66,2.83Z"/><path class="cls-5" d="M40.32,34.87c-.69,2.49-4.33,2.59-4.47,5.53l0,0c-.89,0-.77.63-.78,1.19v0c-.87.65-1.11,2.44-3.73,1-.18-.12.52-1.16.42-2.05l3.37-9,0,0c1.05-.06,1.25-1.58,2.54-1.41,1.18,1.08,2.64,2,3.38,3.64A1.13,1.13,0,0,0,40.32,34.87Z"/><path class="cls-5" d="M30.79,62.84c.56,2.75-2,3.23-3.31,5A25.76,25.76,0,0,1,21,58.38c2.25-.46.06-2,.72-2.89C25.77,56.63,28,60.11,30.79,62.84Z"/><path class="cls-7" d="M38.11,57.62c-1.36.05-1.47-.85-1.68-1.92-.49-2.53-1.15-5-1.82-7.51-.43-1.53-4-.66-2.65-3.58h5c.87.26.91,1.5,1.28,2.51,0,2.71,2.15,4.5,3,6.88Z"/><path class="cls-5" d="M18.84,53.08c-.46-1.74-.93-3.48-1.39-5.22.09-1-.48-2.13.4-3.35,1.7-.09,3.56-.58,5.38.37.29,1.77.59,3.53.89,5.3,0,1.6-1.24,1.77-2.2,1.55A2,2,0,0,0,19.39,53Z"/><path class="cls-6" d="M38.11,57.62,41.21,54c-.84-2.38-3-4.17-3-6.88l.68-.76.76,0,0,0c-.16,2.54,1.12,4.37,3,6.23,1.54-1.48,3.44-2.31,3.74-4.54V46.51l3.08,1.07v2.6c-2.76-.34-3.78,1.86-5.2,3.17,0,1.64,1.83,1.58,2,3-1.51.82-2.27-1.17-3.82-1l-3.47,2.94Z"/><path class="cls-7" d="M24.9,44.28c1.79.27,3.68-.43,5.6.57-.2,2.51-3.35,3.86-2.26,6.39-2,1.24-2.62.32-3-1.06C25,48.22,24.17,46.29,24.9,44.28Z"/><path class="cls-5" d="M46.31,48.06c-.3,2.23-2.2,3.06-3.74,4.54-1.83-1.86-3.11-3.69-3-6.23,1.86-.45,2.93,1.51,4.65,1.51,0,.17,0,.34.07.52l.52-.5Z"/><path class="cls-9" d="M40.32,34.87A1.13,1.13,0,0,1,41,33.69h.89l.88.11C41,40.06,41.75,42,47.24,45.56l-.81.77C41.05,44.28,40.21,39.83,40.32,34.87Z"/><path class="cls-6" d="M35.15,31.43l-3.37,9h-1C31.42,37.05,31.45,33.35,35.15,31.43Z"/><path class="cls-9" d="M18.84,53.08l.55,0c.76.82.68,2.42,2.28,2.46-.66.86,1.53,2.43-.72,2.89A10.83,10.83,0,0,1,18.84,53.08Z"/><path class="cls-6" d="M24.9,44.28c-.73,2,.08,3.94.32,5.9h-1.1c-.3-1.77-.6-3.53-.89-5.3Z"/><path class="cls-7" d="M35.09,41.54v0c.53-.22.89-.55.78-1.19l0,0c1.07.53,2.37.94,1.33,2.58C35.79,43.46,35.68,42.16,35.09,41.54Z"/><path class="cls-9" d="M32.85,62.86l-1.47-.73c.13-.62.53-.72,1.27-.53Z"/><path class="cls-6" d="M44.86,47.9l-.52.5c0-.18-.05-.35-.07-.52A2.33,2.33,0,0,1,44.86,47.9Z"/><path class="cls-5" d="M39.66,46.41l-.76,0,.45-.52Z"/><path class="cls-2" d="M40.35,24.67a0,0,0,0,0,0,0l.06,0Zm1.49-.75v0l.06,0Zm2.26-1.5,0,0,0,0Zm4.79-8.79c-3.94,1.27-8,2.16-10.33,6.07-.43,1.49-.87,3-1.28,4.4.87,1.15,1.93.39,2.84.52a.86.86,0,0,1,.23.05,1,1,0,0,1,.1-.32.23.23,0,0,1,.06-.12.27.27,0,0,1,.06-.1.6.6,0,0,1,.19-.17.53.53,0,0,1,.17-.08l.07,0h.06l.19,0a2.12,2.12,0,0,1,.59.09.53.53,0,0,1,.23-.58l.23-.1.32-.07h0l.75-.69.72-.06c1.32-2.09,3.37-3.48,5.22-5.1C49.18,16.08,49.59,14.85,48.89,13.63Zm-7,5.9-.44.52h0l-.1-.09a.77.77,0,0,1-.12-.17c-.07-.23.17-.37.42-.51h0l.25-.22.26-.22C42.69,19.29,42.27,19.39,41.93,19.53Z"/><path class="cls-7" d="M38.56,19.7c-.44,1.49-.87,3-1.28,4.39,1,1.28,2.15.22,3.12.59,0,.51-.65,1,0,1.54h0C39,25,38,28,36.59,26.61c0-1-.68-1.11-1.43-1.17l-.81,0h0c.1-.61-.15-.86-.77-.76h0c.25-1,.51-2,.76-3h0c1.66.08,2.35-1.27,3.3-2.24Z"/><path class="cls-6" d="M36.59,26.61C38,28,39,25,40.4,26.22l-1.61,2.25c.52,2.15,3.59,2.62,3.14,5.22H41c-.74-1.63-2.2-2.56-3.38-3.64-1.29-.17-1.49,1.35-2.54,1.41C34,30,36.6,29.11,35.76,27.67Z"/><path class="cls-6" d="M40.4,26.22c-.65-.51,0-1,0-1.54l-.06,0a1.31,1.31,0,0,0,1.55-.77l0,0c.44-.09.86-.2.79-.8l0,0,.76.05c.42-.13,1-.09.77-.83l0,0c1.7.83,3.37-1.3,5.61.07Z"/><path class="cls-6" d="M37.65,19.45c-.95,1-1.64,2.32-3.3,2.24C34.64,19.75,35.7,18.94,37.65,19.45Z"/><path class="cls-9" d="M49.89,71.25l1.5-.19c0,.53,0,1,0,1.58l-1.27,0C50.06,72.16,50,71.7,49.89,71.25Z"/><path class="cls-2" d="M79.32,79.27l-.35.57c-.53-.66-.07-.89.4-1.12A.94.94,0,0,1,79.32,79.27Z"/><path class="cls-2" d="M79.32,79.27a.87.87,0,0,0,.05-.55.63.63,0,0,1,.47-.41l.59.69Z"/><path class="cls-3" d="M68.78,60.64a3.44,3.44,0,0,1-.15-.55c0-.08.15-.16.23-.24l.68.16Z"/><path class="cls-3" d="M51.41,72.64c0-.53,0-1,0-1.58q.06-6.34.11-12.69l1-.7a1.5,1.5,0,0,1,1.18,1.64V77.39C50.75,75.83,51.9,74,51.41,72.64Z"/><path class="cls-6" d="M56.37,62.63l1.51,1.44,1,1.8c0,.49.09,1,.14,1.46-1.18-2-4.8-1.88-4.39-5.14Z"/><path class="cls-9" d="M52.45,57.67l-1,.7-1.26.05C50.5,57.26,51.37,57,52.39,57,52.4,57.22,52.42,57.44,52.45,57.67Z"/><path class="cls-6" d="M69.63,65.88c.34-.55.74-1,1.48-.75.69,1-.31,1.07-.8,1.4Z"/><path class="cls-3" d="M69.63,65.88l.68.65-.71.11a2.43,2.43,0,0,1-.17-.52C69.43,66.05,69.56,66,69.63,65.88Z"/><path class="cls-3" d="M69.74,55.44l.66.8-.8.68C68.88,56.35,69.48,55.91,69.74,55.44Z"/><path class="cls-3" d="M68.83,57.67c-.15-.69-.06-1.12.8-.79C69.62,57.4,69.41,57.72,68.83,57.67Z"/><path class="cls-4" d="M53.55,51.85a2.61,2.61,0,0,1-2.76-.15V35.89a3.91,3.91,0,0,1,3.09-1c.08.58.15,1.17.22,1.76Q53.83,44.23,53.55,51.85Z"/><path class="cls-6" d="M47.86,39.7c.22-1-.26-2.22,1.45-3.09.32,1.65.72,2.86-1.48,3.06Z"/><path class="cls-6" d="M56.13,49.38c-.27.42.06,1.23-.87,1.26-.69-1.09.39-1,.86-1.27Z"/><path class="cls-3" d="M70.3,31.45c2.27.75,2.46,2.53,2.28,4.51C70.77,35,69.62,33.68,70.3,31.45Z"/><path class="cls-3" d="M70.24,30.73a2.78,2.78,0,0,1,.18.48c0,.08-.07.17-.1.26l-.77,0Z"/><path class="cls-7" d="M66.9,30.92c.22-.45.47-.85,1.11-.7.6.73.06,1.05-.51,1.36Z"/><path class="cls-6" d="M41.83,61.51l9,3.54A13.8,13.8,0,0,1,41,62.22Z"/><path class="cls-2" d="M41.83,61.51l-.87.71-.78-.65c.19-.22.38-.43.58-.64Z"/><path class="cls-9" d="M36.59,26.61l-.83,1.06a.89.89,0,0,1-.61-1.08V25.44C35.91,25.5,36.61,25.61,36.59,26.61Z"/><path class="cls-6" d="M33.6,24.72c.62-.1.87.15.77.76C33.58,25.76,33.34,25.5,33.6,24.72Z"/><path class="cls-6" d="M35.16,25.44v1.15c-.39-.29-1-.38-.8-1.12Z"/><path class="cls-2" d="M35.88,40.38c.11.64-.25,1-.78,1.19C35.11,41,35,40.37,35.88,40.38Z"/><path class="cls-9" d="M41.89,23.93a1.31,1.31,0,0,1-1.55.77C40.51,23.74,41.15,23.74,41.89,23.93Z"/><path class="cls-9" d="M41.68,19.26l.52-.43c.49.46.06.56-.27.7Z"/><path class="cls-9" d="M41.93,19.53l-.45.52c-.47-.4-.14-.59.2-.78Z"/><path class="cls-9" d="M43.35,23.25l-.76-.05.79-.72Z"/><path class="cls-5" d="M43.35,23.25l0-.77.74-.06C44.37,23.16,43.77,23.12,43.35,23.25Z"/><path class="cls-9" d="M42.63,23.17c.07.6-.35.71-.79.8C41.75,23.36,42.17,23.24,42.63,23.17Z"/></svg>